<?xml version="1.0" standalone="no"?>
<!DOCTYPE svg PUBLIC "-//W3C//DTD SVG 20010904//EN"
 "http://www.w3.org/TR/2001/REC-SVG-20010904/DTD/svg10.dtd">
<svg version="1.0" xmlns="http://www.w3.org/2000/svg"
 width="260.000000pt" height="260.000000pt" viewBox="0 0 260.000000 260.000000"
 preserveAspectRatio="xMidYMid meet">
<metadata>
Created by potrace 1.11, written by Peter Selinger 2001-2013
</metadata>
<g transform="translate(0.000000,260.000000) scale(0.100000,-0.100000)"
fill="#000000" stroke="none">
<path d="M0 1300 l0 -1300 1300 0 1300 0 0 1300 0 1300 -1300 0 -1300 0 0
-1300z m1680 685 c201 -136 371 -252 378 -260 12 -10 8 -21 -20 -64 -18 -28
-39 -51 -45 -51 -10 0 -13 -42 -13 -175 l0 -175 -665 0 -665 0 0 191 0 190
-22 -15 c-12 -9 -25 -16 -29 -16 -3 0 -23 25 -43 55 l-36 55 65 42 65 43 0
123 0 122 65 0 65 0 0 -75 c0 -41 3 -75 6 -75 3 0 119 77 257 170 139 94 256
168 262 166 5 -2 174 -115 375 -251z m-1250 -985 l0 -260 85 0 85 0 0 -50 0
-50 -150 0 -150 0 0 310 0 310 65 0 65 0 0 -260z m547 94 c56 -41 63 -71 63
-271 l0 -183 -46 0 c-41 0 -46 3 -55 30 -13 35 -20 37 -37 9 -15 -24 -70 -49
-108 -49 -39 0 -88 27 -107 59 -23 39 -23 133 0 172 24 41 76 63 162 67 l73 4
-5 35 c-3 19 -11 41 -18 49 -15 18 -80 18 -122 0 -33 -13 -33 -13 -55 25 -15
27 -19 40 -11 45 62 38 218 43 266 8z m503 9 c16 -9 34 -27 41 -40 l13 -24 19
26 c40 54 130 72 188 38 55 -33 64 -68 67 -275 l4 -188 -66 0 -66 0 0 165 c0
171 -7 210 -42 221 -25 7 -66 -20 -78 -52 -6 -14 -10 -95 -10 -180 l0 -154
-65 0 -65 0 0 165 c0 171 -7 210 -42 221 -25 7 -66 -20 -78 -52 -6 -14 -10
-95 -10 -180 l0 -154 -65 0 -65 0 0 235 0 235 50 0 c36 0 52 -4 55 -15 17 -53
15 -52 27 -32 29 52 131 74 188 40z m771 -9 c50 -45 64 -92 64 -214 0 -93 -4
-122 -19 -150 -54 -103 -138 -129 -213 -66 l-28 24 4 -129 3 -129 -66 0 -66 0
0 340 0 340 51 0 c47 0 51 -2 61 -31 9 -27 12 -29 20 -15 5 10 24 26 41 37 40
25 117 21 148 -7z"/>
<path d="M1033 1897 l-253 -171 0 -168 0 -168 530 0 530 0 -2 162 -3 162 -264
178 c-145 98 -269 178 -275 177 -6 0 -125 -77 -263 -172z"/>
<path d="M820 842 c-15 -12 -22 -29 -23 -54 -3 -105 102 -84 118 25 l7 47 -40
0 c-23 0 -49 -7 -62 -18z"/>
<path d="M2089 1011 c-23 -18 -24 -26 -24 -129 0 -94 3 -113 19 -131 11 -12
29 -21 41 -21 12 0 30 9 41 21 16 18 19 37 19 131 0 103 -1 111 -24 129 -13
10 -29 19 -36 19 -7 0 -23 -9 -36 -19z"/>
</g>
</svg>
